<?xml version="1.0" encoding="UTF-8" standalone="no"?>
<!DOCTYPE svg PUBLIC "-//W3C//DTD SVG 1.1//EN"
 "http://www.w3.org/Graphics/SVG/1.1/DTD/svg11.dtd">
<!-- Generated by graphviz version 2.26.3 (20100126.1600)
 -->
<!-- Title: G Pages: 1 -->
<svg width="1088pt" height="2128pt"
 viewBox="0.00 0.00 1088.00 2128.00" xmlns="http://www.w3.org/2000/svg" xmlns:xlink="http://www.w3.org/1999/xlink">
<g id="graph1" class="graph" transform="scale(1 1) rotate(0) translate(4 2124)">
<title>G</title>
<polygon fill="white" stroke="white" points="-4,5 -4,-2124 1085,-2124 1085,5 -4,5"/>
<g id="graph2" class="cluster"><title>cluster_Shaythamc</title>
<polyline fill="none" stroke="gray" points="802,-8 1060,-8 "/>
<path fill="none" stroke="gray" d="M1060,-8C1066,-8 1072,-14 1072,-20"/>
<polyline fill="none" stroke="gray" points="1072,-20 1072,-2018 "/>
<path fill="none" stroke="gray" d="M1072,-2018C1072,-2024 1066,-2030 1060,-2030"/>
<polyline fill="none" stroke="gray" points="1060,-2030 802,-2030 "/>
<path fill="none" stroke="gray" d="M802,-2030C796,-2030 790,-2024 790,-2018"/>
<polyline fill="none" stroke="gray" points="790,-2018 790,-20 "/>
<path fill="none" stroke="gray" d="M790,-20C790,-14 796,-8 802,-8"/>
<text text-anchor="middle" x="931" y="-2016.1" font-family="Times Roman,serif" font-size="11.00" fill="gray">Shaythamc</text>
</g>
<g id="graph3" class="cluster"><title>cluster_Shaythamc\LinkManagementBundle</title>
<polyline fill="none" stroke="gray" points="810,-16 1052,-16 "/>
<path fill="none" stroke="gray" d="M1052,-16C1058,-16 1064,-22 1064,-28"/>
<polyline fill="none" stroke="gray" points="1064,-28 1064,-1988 "/>
<path fill="none" stroke="gray" d="M1064,-1988C1064,-1994 1058,-2000 1052,-2000"/>
<polyline fill="none" stroke="gray" points="1052,-2000 810,-2000 "/>
<path fill="none" stroke="gray" d="M810,-2000C804,-2000 798,-1994 798,-1988"/>
<polyline fill="none" stroke="gray" points="798,-1988 798,-28 "/>
<path fill="none" stroke="gray" d="M798,-28C798,-22 804,-16 810,-16"/>
<text text-anchor="middle" x="931" y="-1986.1" font-family="Times Roman,serif" font-size="11.00" fill="gray">LinkManagementBundle</text>
</g>
<g id="graph4" class="cluster"><title>cluster_Shaythamc\LinkManagementBundle\Controller</title>
<polyline fill="none" stroke="gray" points="862,-1626 1000,-1626 "/>
<path fill="none" stroke="gray" d="M1000,-1626C1006,-1626 1012,-1632 1012,-1638"/>
<polyline fill="none" stroke="gray" points="1012,-1638 1012,-1958 "/>
<path fill="none" stroke="gray" d="M1012,-1958C1012,-1964 1006,-1970 1000,-1970"/>
<polyline fill="none" stroke="gray" points="1000,-1970 862,-1970 "/>
<path fill="none" stroke="gray" d="M862,-1970C856,-1970 850,-1964 850,-1958"/>
<polyline fill="none" stroke="gray" points="850,-1958 850,-1638 "/>
<path fill="none" stroke="gray" d="M850,-1638C850,-1632 856,-1626 862,-1626"/>
<text text-anchor="middle" x="931" y="-1956.1" font-family="Times Roman,serif" font-size="11.00" fill="gray">Controller</text>
</g>
<g id="graph5" class="cluster"><title>cluster_Shaythamc\LinkManagementBundle\DependencyInjection</title>
<polyline fill="none" stroke="gray" points="818,-1490 1044,-1490 "/>
<path fill="none" stroke="gray" d="M1044,-1490C1050,-1490 1056,-1496 1056,-1502"/>
<polyline fill="none" stroke="gray" points="1056,-1502 1056,-1606 "/>
<path fill="none" stroke="gray" d="M1056,-1606C1056,-1612 1050,-1618 1044,-1618"/>
<polyline fill="none" stroke="gray" points="1044,-1618 818,-1618 "/>
<path fill="none" stroke="gray" d="M818,-1618C812,-1618 806,-1612 806,-1606"/>
<polyline fill="none" stroke="gray" points="806,-1606 806,-1502 "/>
<path fill="none" stroke="gray" d="M806,-1502C806,-1496 812,-1490 818,-1490"/>
<text text-anchor="middle" x="931" y="-1604.1" font-family="Times Roman,serif" font-size="11.00" fill="gray">DependencyInjection</text>
</g>
<g id="graph6" class="cluster"><title>cluster_Shaythamc\LinkManagementBundle\Entity</title>
<polyline fill="none" stroke="gray" points="889,-1138 973,-1138 "/>
<path fill="none" stroke="gray" d="M973,-1138C979,-1138 985,-1144 985,-1150"/>
<polyline fill="none" stroke="gray" points="985,-1150 985,-1470 "/>
<path fill="none" stroke="gray" d="M985,-1470C985,-1476 979,-1482 973,-1482"/>
<polyline fill="none" stroke="gray" points="973,-1482 889,-1482 "/>
<path fill="none" stroke="gray" d="M889,-1482C883,-1482 877,-1476 877,-1470"/>
<polyline fill="none" stroke="gray" points="877,-1470 877,-1150 "/>
<path fill="none" stroke="gray" d="M877,-1150C877,-1144 883,-1138 889,-1138"/>
<text text-anchor="middle" x="931" y="-1468.1" font-family="Times Roman,serif" font-size="11.00" fill="gray">Entity</text>
</g>
<g id="graph7" class="cluster"><title>cluster_Shaythamc\LinkManagementBundle\Form</title>
<polyline fill="none" stroke="gray" points="862,-648 1000,-648 "/>
<path fill="none" stroke="gray" d="M1000,-648C1006,-648 1012,-654 1012,-660"/>
<polyline fill="none" stroke="gray" points="1012,-660 1012,-1118 "/>
<path fill="none" stroke="gray" d="M1012,-1118C1012,-1124 1006,-1130 1000,-1130"/>
<polyline fill="none" stroke="gray" points="1000,-1130 862,-1130 "/>
<path fill="none" stroke="gray" d="M862,-1130C856,-1130 850,-1124 850,-1118"/>
<polyline fill="none" stroke="gray" points="850,-1118 850,-660 "/>
<path fill="none" stroke="gray" d="M850,-660C850,-654 856,-648 862,-648"/>
<text text-anchor="middle" x="931" y="-1116.1" font-family="Times Roman,serif" font-size="11.00" fill="gray">Form</text>
</g>
<g id="graph8" class="cluster"><title>cluster_Shaythamc\LinkManagementBundle\Form\Type</title>
<polyline fill="none" stroke="gray" points="883,-810 979,-810 "/>
<path fill="none" stroke="gray" d="M979,-810C985,-810 991,-816 991,-822"/>
<polyline fill="none" stroke="gray" points="991,-822 991,-1088 "/>
<path fill="none" stroke="gray" d="M991,-1088C991,-1094 985,-1100 979,-1100"/>
<polyline fill="none" stroke="gray" points="979,-1100 883,-1100 "/>
<path fill="none" stroke="gray" d="M883,-1100C877,-1100 871,-1094 871,-1088"/>
<polyline fill="none" stroke="gray" points="871,-1088 871,-822 "/>
<path fill="none" stroke="gray" d="M871,-822C871,-816 877,-810 883,-810"/>
<text text-anchor="middle" x="931" y="-1086.1" font-family="Times Roman,serif" font-size="11.00" fill="gray">Type</text>
</g>
<g id="graph10" class="cluster"><title>cluster_Shaythamc\LinkManagementBundle\Service</title>
<polyline fill="none" stroke="gray" points="872,-188 990,-188 "/>
<path fill="none" stroke="gray" d="M990,-188C996,-188 1002,-194 1002,-200"/>
<polyline fill="none" stroke="gray" points="1002,-200 1002,-628 "/>
<path fill="none" stroke="gray" d="M1002,-628C1002,-634 996,-640 990,-640"/>
<polyline fill="none" stroke="gray" points="990,-640 872,-640 "/>
<path fill="none" stroke="gray" d="M872,-640C866,-640 860,-634 860,-628"/>
<polyline fill="none" stroke="gray" points="860,-628 860,-200 "/>
<path fill="none" stroke="gray" d="M860,-200C860,-194 866,-188 872,-188"/>
<text text-anchor="middle" x="931" y="-626.1" font-family="Times Roman,serif" font-size="11.00" fill="gray">Service</text>
</g>
<g id="graph11" class="cluster"><title>cluster_Shaythamc\LinkManagementBundle\Tests</title>
<polyline fill="none" stroke="gray" points="848,-68 1014,-68 "/>
<path fill="none" stroke="gray" d="M1014,-68C1020,-68 1026,-74 1026,-80"/>
<polyline fill="none" stroke="gray" points="1026,-80 1026,-168 "/>
<path fill="none" stroke="gray" d="M1026,-168C1026,-174 1020,-180 1014,-180"/>
<polyline fill="none" stroke="gray" points="1014,-180 848,-180 "/>
<path fill="none" stroke="gray" d="M848,-180C842,-180 836,-174 836,-168"/>
<polyline fill="none" stroke="gray" points="836,-168 836,-80 "/>
<path fill="none" stroke="gray" d="M836,-80C836,-74 842,-68 848,-68"/>
<text text-anchor="middle" x="931" y="-166.1" font-family="Times Roman,serif" font-size="11.00" fill="gray">Tests</text>
</g>
<g id="graph12" class="cluster"><title>cluster_Shaythamc\LinkManagementBundle\Tests\Controller</title>
<polyline fill="none" stroke="gray" points="856,-76 1006,-76 "/>
<path fill="none" stroke="gray" d="M1006,-76C1012,-76 1018,-82 1018,-88"/>
<polyline fill="none" stroke="gray" points="1018,-88 1018,-138 "/>
<path fill="none" stroke="gray" d="M1018,-138C1018,-144 1012,-150 1006,-150"/>
<polyline fill="none" stroke="gray" points="1006,-150 856,-150 "/>
<path fill="none" stroke="gray" d="M856,-150C850,-150 844,-144 844,-138"/>
<polyline fill="none" stroke="gray" points="844,-138 844,-88 "/>
<path fill="none" stroke="gray" d="M844,-88C844,-82 850,-76 856,-76"/>
<text text-anchor="middle" x="931" y="-136.1" font-family="Times Roman,serif" font-size="11.00" fill="gray">Controller</text>
</g>
<g id="graph22" class="cluster"><title>cluster_global</title>
<polyline fill="none" stroke="gray" points="852,-2038 1010,-2038 "/>
<path fill="none" stroke="gray" d="M1010,-2038C1016,-2038 1022,-2044 1022,-2050"/>
<polyline fill="none" stroke="gray" points="1022,-2050 1022,-2100 "/>
<path fill="none" stroke="gray" d="M1022,-2100C1022,-2106 1016,-2112 1010,-2112"/>
<polyline fill="none" stroke="gray" points="1010,-2112 852,-2112 "/>
<path fill="none" stroke="gray" d="M852,-2112C846,-2112 840,-2106 840,-2100"/>
<polyline fill="none" stroke="gray" points="840,-2100 840,-2050 "/>
<path fill="none" stroke="gray" d="M840,-2050C840,-2044 846,-2038 852,-2038"/>
<text text-anchor="middle" x="931" y="-2098.1" font-family="Times Roman,serif" font-size="11.00" fill="gray">global</text>
</g>
<!-- \\Shaythamc\\LinkManagementBundle\\Controller\\BudgetController -->
<g id="node4" class="node"><title>\\Shaythamc\\LinkManagementBundle\\Controller\\BudgetController</title>
<a xlink:href="Controller.BudgetController.html" xlink:title="BudgetController" target="_parent">
<polygon fill="none" stroke="black" points="993,-1940 869,-1940 869,-1904 993,-1904 993,-1940"/>
<text text-anchor="middle" x="931" y="-1919.1" font-family="Courier,monospace" font-size="11.00">BudgetController</text>
</a>
</g>
<!-- \\Symfony\\Bundle\\FrameworkBundle\\Controller\\Controller -->
<g id="node72" class="node"><title>\\Symfony\\Bundle\\FrameworkBundle\\Controller\\Controller</title>
<ellipse fill="none" stroke="black" cx="371" cy="-1787" rx="290.121" ry="18.3848"/>
<text text-anchor="middle" x="371" y="-1783.4" font-family="Times Roman,serif" font-size="14.00" fill="gray">\Symfony\Bundle\FrameworkBundle\Controller\Controller</text>
</g>
<!-- \\Shaythamc\\LinkManagementBundle\\Controller\\BudgetController&#45;&gt;\\Symfony\\Bundle\\FrameworkBundle\\Controller\\Controller -->
<g id="edge45" class="edge"><title>\\Shaythamc\\LinkManagementBundle\\Controller\\BudgetController&#45;&gt;\\Symfony\\Bundle\\FrameworkBundle\\Controller\\Controller</title>
<path fill="none" stroke="black" d="M868.355,-1910.88C843.844,-1906.3 815.535,-1900.73 790,-1895 667.972,-1867.62 527.456,-1830.18 444.106,-1807.34"/>
<polygon fill="none" stroke="black" points="444.8,-1803.9 434.23,-1804.63 442.947,-1810.65 444.8,-1803.9"/>
</g>
<!-- \\Shaythamc\\LinkManagementBundle\\Controller\\WebmasterController -->
<g id="node5" class="node"><title>\\Shaythamc\\LinkManagementBundle\\Controller\\WebmasterController</title>
<a xlink:href="Controller.WebmasterController.html" xlink:title="WebmasterController" target="_parent">
<polygon fill="none" stroke="black" points="1003,-1886 859,-1886 859,-1850 1003,-1850 1003,-1886"/>
<text text-anchor="middle" x="931" y="-1865.1" font-family="Courier,monospace" font-size="11.00">WebmasterController</text>
</a>
</g>
<!-- \\Shaythamc\\LinkManagementBundle\\Controller\\WebmasterController&#45;&gt;\\Symfony\\Bundle\\FrameworkBundle\\Controller\\Controller -->
<g id="edge47" class="edge"><title>\\Shaythamc\\LinkManagementBundle\\Controller\\WebmasterController&#45;&gt;\\Symfony\\Bundle\\FrameworkBundle\\Controller\\Controller</title>
<path fill="none" stroke="black" d="M858.364,-1857.49C766.509,-1844.21 606.917,-1821.12 495.471,-1805"/>
<polygon fill="none" stroke="black" points="495.913,-1801.53 485.515,-1803.56 494.911,-1808.46 495.913,-1801.53"/>
</g>
<!-- \\Shaythamc\\LinkManagementBundle\\Controller\\DefaultController -->
<g id="node6" class="node"><title>\\Shaythamc\\LinkManagementBundle\\Controller\\DefaultController</title>
<a xlink:href="Controller.DefaultController.html" xlink:title="DefaultController" target="_parent">
<polygon fill="none" stroke="black" points="996,-1832 866,-1832 866,-1796 996,-1796 996,-1832"/>
<text text-anchor="middle" x="931" y="-1811.1" font-family="Courier,monospace" font-size="11.00">DefaultController</text>
</a>
</g>
<!-- \\Shaythamc\\LinkManagementBundle\\Controller\\DefaultController&#45;&gt;\\Symfony\\Bundle\\FrameworkBundle\\Controller\\Controller -->
<g id="edge49" class="edge"><title>\\Shaythamc\\LinkManagementBundle\\Controller\\DefaultController&#45;&gt;\\Symfony\\Bundle\\FrameworkBundle\\Controller\\Controller</title>
<path fill="none" stroke="black" d="M865.39,-1810.84C802.411,-1807.8 703.403,-1803.03 610.478,-1798.55"/>
<polygon fill="none" stroke="black" points="610.504,-1795.04 600.347,-1798.06 610.166,-1802.04 610.504,-1795.04"/>
</g>
<!-- \\Shaythamc\\LinkManagementBundle\\Controller\\BacklinkController -->
<g id="node7" class="node"><title>\\Shaythamc\\LinkManagementBundle\\Controller\\BacklinkController</title>
<a xlink:href="Controller.BacklinkController.html" xlink:title="BacklinkController" target="_parent">
<polygon fill="none" stroke="black" points="1000,-1778 862,-1778 862,-1742 1000,-1742 1000,-1778"/>
<text text-anchor="middle" x="931" y="-1757.1" font-family="Courier,monospace" font-size="11.00">BacklinkController</text>
</a>
</g>
<!-- \\Shaythamc\\LinkManagementBundle\\Controller\\BacklinkController&#45;&gt;\\Symfony\\Bundle\\FrameworkBundle\\Controller\\Controller -->
<g id="edge51" class="edge"><title>\\Shaythamc\\LinkManagementBundle\\Controller\\BacklinkController&#45;&gt;\\Symfony\\Bundle\\FrameworkBundle\\Controller\\Controller</title>
<path fill="none" stroke="black" d="M861.771,-1763.34C798.731,-1766.38 701.857,-1771.05 610.781,-1775.44"/>
<polygon fill="none" stroke="black" points="610.385,-1771.95 600.565,-1775.93 610.722,-1778.95 610.385,-1771.95"/>
</g>
<!-- \\Shaythamc\\LinkManagementBundle\\Controller\\LinkController -->
<g id="node8" class="node"><title>\\Shaythamc\\LinkManagementBundle\\Controller\\LinkController</title>
<a xlink:href="Controller.LinkController.html" xlink:title="LinkController" target="_parent">
<polygon fill="none" stroke="black" points="986,-1724 876,-1724 876,-1688 986,-1688 986,-1724"/>
<text text-anchor="middle" x="931" y="-1703.1" font-family="Courier,monospace" font-size="11.00">LinkController</text>
</a>
</g>
<!-- \\Shaythamc\\LinkManagementBundle\\Controller\\LinkController&#45;&gt;\\Symfony\\Bundle\\FrameworkBundle\\Controller\\Controller -->
<g id="edge53" class="edge"><title>\\Shaythamc\\LinkManagementBundle\\Controller\\LinkController&#45;&gt;\\Symfony\\Bundle\\FrameworkBundle\\Controller\\Controller</title>
<path fill="none" stroke="black" d="M875.258,-1714.06C787.355,-1726.78 614.352,-1751.8 495.726,-1768.96"/>
<polygon fill="none" stroke="black" points="494.892,-1765.54 485.496,-1770.44 495.894,-1772.47 494.892,-1765.54"/>
</g>
<!-- \\Shaythamc\\LinkManagementBundle\\Controller\\SiteController -->
<g id="node9" class="node"><title>\\Shaythamc\\LinkManagementBundle\\Controller\\SiteController</title>
<a xlink:href="Controller.SiteController.html" xlink:title="SiteController" target="_parent">
<polygon fill="none" stroke="black" points="986,-1670 876,-1670 876,-1634 986,-1634 986,-1670"/>
<text text-anchor="middle" x="931" y="-1649.1" font-family="Courier,monospace" font-size="11.00">SiteController</text>
</a>
</g>
<!-- \\Shaythamc\\LinkManagementBundle\\Controller\\SiteController&#45;&gt;\\Symfony\\Bundle\\FrameworkBundle\\Controller\\Controller -->
<g id="edge55" class="edge"><title>\\Shaythamc\\LinkManagementBundle\\Controller\\SiteController&#45;&gt;\\Symfony\\Bundle\\FrameworkBundle\\Controller\\Controller</title>
<path fill="none" stroke="black" d="M875.249,-1661.84C849.261,-1666.64 817.967,-1672.72 790,-1679 667.972,-1706.38 527.456,-1743.82 444.106,-1766.66"/>
<polygon fill="none" stroke="black" points="442.947,-1763.35 434.23,-1769.37 444.8,-1770.1 442.947,-1763.35"/>
</g>
<!-- \\Shaythamc\\LinkManagementBundle\\DependencyInjection\\Configuration -->
<g id="node11" class="node"><title>\\Shaythamc\\LinkManagementBundle\\DependencyInjection\\Configuration</title>
<a xlink:href="DependencyInjection.Configuration.html" xlink:title="Configuration" target="_parent">
<polygon fill="none" stroke="black" points="983,-1588 879,-1588 879,-1552 983,-1552 983,-1588"/>
<text text-anchor="middle" x="931" y="-1567.1" font-family="Courier,monospace" font-size="11.00">Configuration</text>
</a>
</g>
<!-- \\Symfony\\Component\\Config\\Definition\\ConfigurationInterface -->
<g id="node83" class="node"><title>\\Symfony\\Component\\Config\\Definition\\ConfigurationInterface</title>
<ellipse fill="none" stroke="black" cx="371" cy="-1570" rx="330.219" ry="18.3848"/>
<text text-anchor="middle" x="371" y="-1566.4" font-family="Times Roman,serif" font-size="14.00" fill="gray">\\Symfony\\Component\\Config\\Definition\\ConfigurationInterface</text>
</g>
<!-- \\Shaythamc\\LinkManagementBundle\\DependencyInjection\\Configuration&#45;&gt;\\Symfony\\Component\\Config\\Definition\\ConfigurationInterface -->
<g id="edge61" class="edge"><title>\\Shaythamc\\LinkManagementBundle\\DependencyInjection\\Configuration&#45;&gt;\\Symfony\\Component\\Config\\Definition\\ConfigurationInterface</title>
<path fill="none" stroke="black" stroke-dasharray="1,5" d="M878.819,-1570C837.82,-1570 776.835,-1570 711.218,-1570"/>
<polygon fill="none" stroke="black" points="711.078,-1566.5 701.078,-1570 711.078,-1573.5 711.078,-1566.5"/>
</g>
<!-- \\Shaythamc\\LinkManagementBundle\\DependencyInjection\\ShaythamcLinkManagementExtension -->
<g id="node12" class="node"><title>\\Shaythamc\\LinkManagementBundle\\DependencyInjection\\ShaythamcLinkManagementExtension</title>
<a xlink:href="DependencyInjection.ShaythamcLinkManagementExtension.html" xlink:title="ShaythamcLinkManagementExtension" target="_parent">
<polygon fill="none" stroke="black" points="1047,-1534 815,-1534 815,-1498 1047,-1498 1047,-1534"/>
<text text-anchor="middle" x="931" y="-1513.1" font-family="Courier,monospace" font-size="11.00">ShaythamcLinkManagementExtension</text>
</a>
</g>
<!-- \\Symfony\\Component\\HttpKernel\\DependencyInjection\\Extension -->
<g id="node70" class="node"><title>\\Symfony\\Component\\HttpKernel\\DependencyInjection\\Extension</title>
<ellipse fill="none" stroke="black" cx="371" cy="-1516" rx="329.012" ry="18.3848"/>
<text text-anchor="middle" x="371" y="-1512.4" font-family="Times Roman,serif" font-size="14.00" fill="gray">\Symfony\Component\HttpKernel\DependencyInjection\Extension</text>
</g>
<!-- \\Shaythamc\\LinkManagementBundle\\DependencyInjection\\ShaythamcLinkManagementExtension&#45;&gt;\\Symfony\\Component\\HttpKernel\\DependencyInjection\\Extension -->
<g id="edge43" class="edge"><title>\\Shaythamc\\LinkManagementBundle\\DependencyInjection\\ShaythamcLinkManagementExtension&#45;&gt;\\Symfony\\Component\\HttpKernel\\DependencyInjection\\Extension</title>
<path fill="none" stroke="black" d="M814.287,-1516C783.156,-1516 747.885,-1516 711.166,-1516"/>
<polygon fill="none" stroke="black" points="710.773,-1512.5 700.773,-1516 710.773,-1519.5 710.773,-1512.5"/>
</g>
<!-- \\Shaythamc\\LinkManagementBundle\\Entity\\Backlink -->
<g id="node14" class="node"><title>\\Shaythamc\\LinkManagementBundle\\Entity\\Backlink</title>
<a xlink:href="Entity.Backlink.html" xlink:title="Backlink" target="_parent">
<polygon fill="none" stroke="black" points="966,-1452 896,-1452 896,-1416 966,-1416 966,-1452"/>
<text text-anchor="middle" x="931" y="-1431.1" font-family="Courier,monospace" font-size="11.00">Backlink</text>
</a>
</g>
<!-- \\Shaythamc\\LinkManagementBundle\\Entity\\Budget -->
<g id="node15" class="node"><title>\\Shaythamc\\LinkManagementBundle\\Entity\\Budget</title>
<a xlink:href="Entity.Budget.html" xlink:title="Budget" target="_parent">
<polygon fill="none" stroke="black" points="959,-1398 903,-1398 903,-1362 959,-1362 959,-1398"/>
<text text-anchor="middle" x="931" y="-1377.1" font-family="Courier,monospace" font-size="11.00">Budget</text>
</a>
</g>
<!-- \\Shaythamc\\LinkManagementBundle\\Entity\\Link -->
<g id="node16" class="node"><title>\\Shaythamc\\LinkManagementBundle\\Entity\\Link</title>
<a xlink:href="Entity.Link.html" xlink:title="Link" target="_parent">
<polygon fill="none" stroke="black" points="958,-1344 904,-1344 904,-1308 958,-1308 958,-1344"/>
<text text-anchor="middle" x="931" y="-1323.1" font-family="Courier,monospace" font-size="11.00">Link</text>
</a>
</g>
<!-- \\Shaythamc\\LinkManagementBundle\\Entity\\Webmaster -->
<g id="node17" class="node"><title>\\Shaythamc\\LinkManagementBundle\\Entity\\Webmaster</title>
<a xlink:href="Entity.Webmaster.html" xlink:title="Webmaster" target="_parent">
<polygon fill="none" stroke="black" points="969,-1290 893,-1290 893,-1254 969,-1254 969,-1290"/>
<text text-anchor="middle" x="931" y="-1269.1" font-family="Courier,monospace" font-size="11.00">Webmaster</text>
</a>
</g>
<!-- \\Shaythamc\\LinkManagementBundle\\Entity\\Site -->
<g id="node18" class="node"><title>\\Shaythamc\\LinkManagementBundle\\Entity\\Site</title>
<a xlink:href="Entity.Site.html" xlink:title="Site" target="_parent">
<polygon fill="none" stroke="black" points="958,-1236 904,-1236 904,-1200 958,-1200 958,-1236"/>
<text text-anchor="middle" x="931" y="-1215.1" font-family="Courier,monospace" font-size="11.00">Site</text>
</a>
</g>
<!-- \\Shaythamc\\LinkManagementBundle\\Entity\\Transaction -->
<g id="node19" class="node"><title>\\Shaythamc\\LinkManagementBundle\\Entity\\Transaction</title>
<a xlink:href="Entity.Transaction.html" xlink:title="Transaction" target="_parent">
<polygon fill="none" stroke="black" points="976,-1182 886,-1182 886,-1146 976,-1146 976,-1182"/>
<text text-anchor="middle" x="931" y="-1161.1" font-family="Courier,monospace" font-size="11.00">Transaction</text>
</a>
</g>
<!-- \\Shaythamc\\LinkManagementBundle\\Form\\Type\\BacklinkType -->
<g id="node22" class="node"><title>\\Shaythamc\\LinkManagementBundle\\Form\\Type\\BacklinkType</title>
<a xlink:href="Form.Type.BacklinkType.html" xlink:title="BacklinkType" target="_parent">
<polygon fill="none" stroke="black" points="980,-1070 882,-1070 882,-1034 980,-1034 980,-1070"/>
<text text-anchor="middle" x="931" y="-1049.1" font-family="Courier,monospace" font-size="11.00">BacklinkType</text>
</a>
</g>
<!-- \\Symfony\\Component\\Form\\AbstractType -->
<g id="node58" class="node"><title>\\Symfony\\Component\\Form\\AbstractType</title>
<ellipse fill="none" stroke="black" cx="371" cy="-944" rx="210.217" ry="18.3848"/>
<text text-anchor="middle" x="371" y="-940.4" font-family="Times Roman,serif" font-size="14.00" fill="gray">\Symfony\Component\Form\AbstractType</text>
</g>
<!-- \\Shaythamc\\LinkManagementBundle\\Form\\Type\\BacklinkType&#45;&gt;\\Symfony\\Component\\Form\\AbstractType -->
<g id="edge25" class="edge"><title>\\Shaythamc\\LinkManagementBundle\\Form\\Type\\BacklinkType&#45;&gt;\\Symfony\\Component\\Form\\AbstractType</title>
<path fill="none" stroke="black" d="M881.73,-1042.59C854.653,-1037.41 820.471,-1030.86 790,-1025 678.725,-1003.59 550.855,-978.851 465.937,-962.402"/>
<polygon fill="none" stroke="black" points="466.539,-958.954 456.056,-960.488 465.207,-965.826 466.539,-958.954"/>
</g>
<!-- \\Shaythamc\\LinkManagementBundle\\Form\\Type\\WebmasterType -->
<g id="node23" class="node"><title>\\Shaythamc\\LinkManagementBundle\\Form\\Type\\WebmasterType</title>
<a xlink:href="Form.Type.WebmasterType.html" xlink:title="WebmasterType" target="_parent">
<polygon fill="none" stroke="black" points="983,-1016 879,-1016 879,-980 983,-980 983,-1016"/>
<text text-anchor="middle" x="931" y="-995.1" font-family="Courier,monospace" font-size="11.00">WebmasterType</text>
</a>
</g>
<!-- \\Shaythamc\\LinkManagementBundle\\Form\\Type\\WebmasterType&#45;&gt;\\Symfony\\Component\\Form\\AbstractType -->
<g id="edge27" class="edge"><title>\\Shaythamc\\LinkManagementBundle\\Form\\Type\\WebmasterType&#45;&gt;\\Symfony\\Component\\Form\\AbstractType</title>
<path fill="none" stroke="black" d="M878.819,-992.968C798.02,-985.177 639.602,-969.901 521.084,-958.472"/>
<polygon fill="none" stroke="black" points="521.115,-954.959 510.825,-957.483 520.443,-961.927 521.115,-954.959"/>
</g>
<!-- \\Shaythamc\\LinkManagementBundle\\Form\\Type\\SiteType -->
<g id="node24" class="node"><title>\\Shaythamc\\LinkManagementBundle\\Form\\Type\\SiteType</title>
<a xlink:href="Form.Type.SiteType.html" xlink:title="SiteType" target="_parent">
<polygon fill="none" stroke="black" points="966,-962 896,-962 896,-926 966,-926 966,-962"/>
<text text-anchor="middle" x="931" y="-941.1" font-family="Courier,monospace" font-size="11.00">SiteType</text>
</a>
</g>
<!-- \\Shaythamc\\LinkManagementBundle\\Form\\Type\\SiteType&#45;&gt;\\Symfony\\Component\\Form\\AbstractType -->
<g id="edge29" class="edge"><title>\\Shaythamc\\LinkManagementBundle\\Form\\Type\\SiteType&#45;&gt;\\Symfony\\Component\\Form\\AbstractType</title>
<path fill="none" stroke="black" d="M895.118,-944C834.25,-944 706.225,-944 591.948,-944"/>
<polygon fill="none" stroke="black" points="591.641,-940.5 581.641,-944 591.641,-947.5 591.641,-940.5"/>
</g>
<!-- \\Shaythamc\\LinkManagementBundle\\Form\\Type\\BudgetType -->
<g id="node25" class="node"><title>\\Shaythamc\\LinkManagementBundle\\Form\\Type\\BudgetType</title>
<a xlink:href="Form.Type.BudgetType.html" xlink:title="BudgetType" target="_parent">
<polygon fill="none" stroke="black" points="973,-908 889,-908 889,-872 973,-872 973,-908"/>
<text text-anchor="middle" x="931" y="-887.1" font-family="Courier,monospace" font-size="11.00">BudgetType</text>
</a>
</g>
<!-- \\Shaythamc\\LinkManagementBundle\\Form\\Type\\BudgetType&#45;&gt;\\Symfony\\Component\\Form\\AbstractType -->
<g id="edge31" class="edge"><title>\\Shaythamc\\LinkManagementBundle\\Form\\Type\\BudgetType&#45;&gt;\\Symfony\\Component\\Form\\AbstractType</title>
<path fill="none" stroke="black" d="M888.909,-894.059C811.903,-901.484 644.89,-917.589 521.234,-929.513"/>
<polygon fill="none" stroke="black" points="520.529,-926.065 510.911,-930.509 521.201,-933.033 520.529,-926.065"/>
</g>
<!-- \\Shaythamc\\LinkManagementBundle\\Form\\Type\\LinkType -->
<g id="node26" class="node"><title>\\Shaythamc\\LinkManagementBundle\\Form\\Type\\LinkType</title>
<a xlink:href="Form.Type.LinkType.html" xlink:title="LinkType" target="_parent">
<polygon fill="none" stroke="black" points="966,-854 896,-854 896,-818 966,-818 966,-854"/>
<text text-anchor="middle" x="931" y="-833.1" font-family="Courier,monospace" font-size="11.00">LinkType</text>
</a>
</g>
<!-- \\Shaythamc\\LinkManagementBundle\\Form\\Type\\LinkType&#45;&gt;\\Symfony\\Component\\Form\\AbstractType -->
<g id="edge33" class="edge"><title>\\Shaythamc\\LinkManagementBundle\\Form\\Type\\LinkType&#45;&gt;\\Symfony\\Component\\Form\\AbstractType</title>
<path fill="none" stroke="black" d="M895.358,-842.807C866.849,-848.256 825.856,-856.101 790,-863 678.725,-884.41 550.855,-909.149 465.937,-925.598"/>
<polygon fill="none" stroke="black" points="465.207,-922.174 456.056,-927.512 466.539,-929.046 465.207,-922.174"/>
</g>
<!-- \\Shaythamc\\LinkManagementBundle\\Form\\BudgetChoiceList -->
<g id="node27" class="node"><title>\\Shaythamc\\LinkManagementBundle\\Form\\BudgetChoiceList</title>
<a xlink:href="Form.BudgetChoiceList.html" xlink:title="BudgetChoiceList" target="_parent">
<polygon fill="none" stroke="black" points="993,-800 869,-800 869,-764 993,-764 993,-800"/>
<text text-anchor="middle" x="931" y="-779.1" font-family="Courier,monospace" font-size="11.00">BudgetChoiceList</text>
</a>
</g>
<!-- \\Symfony\\Component\\Form\\Extension\\Core\\ChoiceList\\LazyChoiceList -->
<g id="node64" class="node"><title>\\Symfony\\Component\\Form\\Extension\\Core\\ChoiceList\\LazyChoiceList</title>
<ellipse fill="none" stroke="black" cx="371" cy="-728" rx="350.932" ry="18.3848"/>
<text text-anchor="middle" x="371" y="-724.4" font-family="Times Roman,serif" font-size="14.00" fill="gray">\Symfony\Component\Form\Extension\Core\ChoiceList\LazyChoiceList</text>
</g>
<!-- \\Shaythamc\\LinkManagementBundle\\Form\\BudgetChoiceList&#45;&gt;\\Symfony\\Component\\Form\\Extension\\Core\\ChoiceList\\LazyChoiceList -->
<g id="edge35" class="edge"><title>\\Shaythamc\\LinkManagementBundle\\Form\\BudgetChoiceList&#45;&gt;\\Symfony\\Component\\Form\\Extension\\Core\\ChoiceList\\LazyChoiceList</title>
<path fill="none" stroke="black" d="M868.391,-775.963C790.965,-768.497 655.95,-755.477 546.11,-744.886"/>
<polygon fill="none" stroke="black" points="546.189,-741.377 535.899,-743.901 545.517,-748.345 546.189,-741.377"/>
</g>
<!-- \\Shaythamc\\LinkManagementBundle\\Form\\WebmasterChoiceList -->
<g id="node28" class="node"><title>\\Shaythamc\\LinkManagementBundle\\Form\\WebmasterChoiceList</title>
<a xlink:href="Form.WebmasterChoiceList.html" xlink:title="WebmasterChoiceList" target="_parent">
<polygon fill="none" stroke="black" points="1003,-746 859,-746 859,-710 1003,-710 1003,-746"/>
<text text-anchor="middle" x="931" y="-725.1" font-family="Courier,monospace" font-size="11.00">WebmasterChoiceList</text>
</a>
</g>
<!-- \\Shaythamc\\LinkManagementBundle\\Form\\WebmasterChoiceList&#45;&gt;\\Symfony\\Component\\Form\\Extension\\Core\\ChoiceList\\LazyChoiceList -->
<g id="edge37" class="edge"><title>\\Shaythamc\\LinkManagementBundle\\Form\\WebmasterChoiceList&#45;&gt;\\Symfony\\Component\\Form\\Extension\\Core\\ChoiceList\\LazyChoiceList</title>
<path fill="none" stroke="black" d="M858.364,-728C823.966,-728 780.069,-728 732.758,-728"/>
<polygon fill="none" stroke="black" points="732.613,-724.5 722.613,-728 732.613,-731.5 732.613,-724.5"/>
</g>
<!-- \\Shaythamc\\LinkManagementBundle\\Form\\SiteChoiceList -->
<g id="node29" class="node"><title>\\Shaythamc\\LinkManagementBundle\\Form\\SiteChoiceList</title>
<a xlink:href="Form.SiteChoiceList.html" xlink:title="SiteChoiceList" target="_parent">
<polygon fill="none" stroke="black" points="986,-692 876,-692 876,-656 986,-656 986,-692"/>
<text text-anchor="middle" x="931" y="-671.1" font-family="Courier,monospace" font-size="11.00">SiteChoiceList</text>
</a>
</g>
<!-- \\Shaythamc\\LinkManagementBundle\\Form\\SiteChoiceList&#45;&gt;\\Symfony\\Component\\Form\\Extension\\Core\\ChoiceList\\LazyChoiceList -->
<g id="edge39" class="edge"><title>\\Shaythamc\\LinkManagementBundle\\Form\\SiteChoiceList&#45;&gt;\\Symfony\\Component\\Form\\Extension\\Core\\ChoiceList\\LazyChoiceList</title>
<path fill="none" stroke="black" d="M875.258,-679.375C799.192,-686.71 659.403,-700.19 546.267,-711.099"/>
<polygon fill="none" stroke="black" points="545.717,-707.636 536.099,-712.08 546.389,-714.604 545.717,-707.636"/>
</g>
<!-- \\Shaythamc\\LinkManagementBundle\\Service\\Database -->
<g id="node32" class="node"><title>\\Shaythamc\\LinkManagementBundle\\Service\\Database</title>
<a xlink:href="Service.Database.html" xlink:title="Database" target="_parent">
<polygon fill="none" stroke="black" points="966,-610 896,-610 896,-574 966,-574 966,-610"/>
<text text-anchor="middle" x="931" y="-589.1" font-family="Courier,monospace" font-size="11.00">Database</text>
</a>
</g>
<!-- \\Shaythamc\\LinkManagementBundle\\Service\\BacklinkManager -->
<g id="node33" class="node"><title>\\Shaythamc\\LinkManagementBundle\\Service\\BacklinkManager</title>
<a xlink:href="Service.BacklinkManager.html" xlink:title="BacklinkManager" target="_parent">
<polygon fill="none" stroke="black" points="990,-556 872,-556 872,-520 990,-520 990,-556"/>
<text text-anchor="middle" x="931" y="-535.1" font-family="Courier,monospace" font-size="11.00">BacklinkManager</text>
</a>
</g>
<!-- \\Shaythamc\\LinkManagementBundle\\Service\\WebmasterManager -->
<g id="node34" class="node"><title>\\Shaythamc\\LinkManagementBundle\\Service\\WebmasterManager</title>
<a xlink:href="Service.WebmasterManager.html" xlink:title="WebmasterManager" target="_parent">
<polygon fill="none" stroke="black" points="993,-502 869,-502 869,-466 993,-466 993,-502"/>
<text text-anchor="middle" x="931" y="-481.1" font-family="Courier,monospace" font-size="11.00">WebmasterManager</text>
</a>
</g>
<!-- \\Shaythamc\\LinkManagementBundle\\Service\\BacklinkChecker -->
<g id="node35" class="node"><title>\\Shaythamc\\LinkManagementBundle\\Service\\BacklinkChecker</title>
<a xlink:href="Service.BacklinkChecker.html" xlink:title="BacklinkChecker" target="_parent">
<polygon fill="none" stroke="black" points="990,-448 872,-448 872,-412 990,-412 990,-448"/>
<text text-anchor="middle" x="931" y="-427.1" font-family="Courier,monospace" font-size="11.00">BacklinkChecker</text>
</a>
</g>
<!-- \\Shaythamc\\LinkManagementBundle\\Service\\BudgetManager -->
<g id="node36" class="node"><title>\\Shaythamc\\LinkManagementBundle\\Service\\BudgetManager</title>
<a xlink:href="Service.BudgetManager.html" xlink:title="BudgetManager" target="_parent">
<polygon fill="none" stroke="black" points="983,-394 879,-394 879,-358 983,-358 983,-394"/>
<text text-anchor="middle" x="931" y="-373.1" font-family="Courier,monospace" font-size="11.00">BudgetManager</text>
</a>
</g>
<!-- \\Shaythamc\\LinkManagementBundle\\Service\\SiteManager -->
<g id="node37" class="node"><title>\\Shaythamc\\LinkManagementBundle\\Service\\SiteManager</title>
<a xlink:href="Service.SiteManager.html" xlink:title="SiteManager" target="_parent">
<polygon fill="none" stroke="black" points="976,-340 886,-340 886,-304 976,-304 976,-340"/>
<text text-anchor="middle" x="931" y="-319.1" font-family="Courier,monospace" font-size="11.00">SiteManager</text>
</a>
</g>
<!-- \\Shaythamc\\LinkManagementBundle\\Service\\Stats -->
<g id="node38" class="node"><title>\\Shaythamc\\LinkManagementBundle\\Service\\Stats</title>
<a xlink:href="Service.Stats.html" xlink:title="Stats" target="_parent">
<polygon fill="none" stroke="black" points="958,-286 904,-286 904,-250 958,-250 958,-286"/>
<text text-anchor="middle" x="931" y="-265.1" font-family="Courier,monospace" font-size="11.00">Stats</text>
</a>
</g>
<!-- \\SEOstats -->
<g id="node81" class="node"><title>\\SEOstats</title>
<ellipse fill="none" stroke="black" cx="371" cy="-268" rx="58.8978" ry="18.3848"/>
<text text-anchor="middle" x="371" y="-264.4" font-family="Times Roman,serif" font-size="14.00" fill="gray">\SEOstats</text>
</g>
<!-- \\Shaythamc\\LinkManagementBundle\\Service\\Stats&#45;&gt;\\SEOstats -->
<g id="edge59" class="edge"><title>\\Shaythamc\\LinkManagementBundle\\Service\\Stats&#45;&gt;\\SEOstats</title>
<path fill="none" stroke="black" d="M903.99,-268C820.581,-268 565.227,-268 440.72,-268"/>
<polygon fill="none" stroke="black" points="440.536,-264.5 430.536,-268 440.536,-271.5 440.536,-264.5"/>
</g>
<!-- \\Shaythamc\\LinkManagementBundle\\Service\\LinkManager -->
<g id="node39" class="node"><title>\\Shaythamc\\LinkManagementBundle\\Service\\LinkManager</title>
<a xlink:href="Service.LinkManager.html" xlink:title="LinkManager" target="_parent">
<polygon fill="none" stroke="black" points="976,-232 886,-232 886,-196 976,-196 976,-232"/>
<text text-anchor="middle" x="931" y="-211.1" font-family="Courier,monospace" font-size="11.00">LinkManager</text>
</a>
</g>
<!-- \\Shaythamc\\LinkManagementBundle\\Tests\\Controller\\DefaultControllerTest -->
<g id="node42" class="node"><title>\\Shaythamc\\LinkManagementBundle\\Tests\\Controller\\DefaultControllerTest</title>
<a xlink:href="Tests.Controller.DefaultControllerTest.html" xlink:title="DefaultControllerTest" target="_parent">
<polygon fill="none" stroke="black" points="1010,-120 852,-120 852,-84 1010,-84 1010,-120"/>
<text text-anchor="middle" x="931" y="-99.1" font-family="Courier,monospace" font-size="11.00">DefaultControllerTest</text>
</a>
</g>
<!-- \\Symfony\\Bundle\\FrameworkBundle\\Test\\WebTestCase -->
<g id="node79" class="node"><title>\\Symfony\\Bundle\\FrameworkBundle\\Test\\WebTestCase</title>
<ellipse fill="none" stroke="black" cx="371" cy="-102" rx="277.186" ry="18.3848"/>
<text text-anchor="middle" x="371" y="-98.4" font-family="Times Roman,serif" font-size="14.00" fill="gray">\Symfony\Bundle\FrameworkBundle\Test\WebTestCase</text>
</g>
<!-- \\Shaythamc\\LinkManagementBundle\\Tests\\Controller\\DefaultControllerTest&#45;&gt;\\Symfony\\Bundle\\FrameworkBundle\\Test\\WebTestCase -->
<g id="edge57" class="edge"><title>\\Shaythamc\\LinkManagementBundle\\Tests\\Controller\\DefaultControllerTest&#45;&gt;\\Symfony\\Bundle\\FrameworkBundle\\Test\\WebTestCase</title>
<path fill="none" stroke="black" d="M851.953,-102C800.41,-102 729.666,-102 658.289,-102"/>
<polygon fill="none" stroke="black" points="658.215,-98.5001 648.215,-102 658.215,-105.5 658.215,-98.5001"/>
</g>
<!-- \\Shaythamc\\LinkManagementBundle\\ShaythamcLinkManagementBundle -->
<g id="node43" class="node"><title>\\Shaythamc\\LinkManagementBundle\\ShaythamcLinkManagementBundle</title>
<a xlink:href="ShaythamcLinkManagementBundle.html" xlink:title="ShaythamcLinkManagementBundle" target="_parent">
<polygon fill="none" stroke="black" points="1037,-60 825,-60 825,-24 1037,-24 1037,-60"/>
<text text-anchor="middle" x="931" y="-39.1" font-family="Courier,monospace" font-size="11.00">ShaythamcLinkManagementBundle</text>
</a>
</g>
<!-- \\Symfony\\Component\\HttpKernel\\Bundle\\Bundle -->
<g id="node68" class="node"><title>\\Symfony\\Component\\HttpKernel\\Bundle\\Bundle</title>
<ellipse fill="none" stroke="black" cx="371" cy="-42" rx="246.78" ry="18.3848"/>
<text text-anchor="middle" x="371" y="-38.4" font-family="Times Roman,serif" font-size="14.00" fill="gray">\Symfony\Component\HttpKernel\Bundle\Bundle</text>
</g>
<!-- \\Shaythamc\\LinkManagementBundle\\ShaythamcLinkManagementBundle&#45;&gt;\\Symfony\\Component\\HttpKernel\\Bundle\\Bundle -->
<g id="edge41" class="edge"><title>\\Shaythamc\\LinkManagementBundle\\ShaythamcLinkManagementBundle&#45;&gt;\\Symfony\\Component\\HttpKernel\\Bundle\\Bundle</title>
<path fill="none" stroke="black" d="M824.68,-42C768.822,-42 697.722,-42 628.472,-42"/>
<polygon fill="none" stroke="black" points="628.27,-38.5001 618.27,-42 628.27,-45.5001 628.27,-38.5001"/>
</g>
<!-- \\BacklinkCheckerCommand -->
<g id="node54" class="node"><title>\\BacklinkCheckerCommand</title>
<a xlink:href="Command.BacklinkCheckerCommand.html" xlink:title="BacklinkCheckerCommand" target="_parent">
<polygon fill="none" stroke="black" points="1013,-2082 849,-2082 849,-2046 1013,-2046 1013,-2082"/>
<text text-anchor="middle" x="931" y="-2061.1" font-family="Courier,monospace" font-size="11.00">BacklinkCheckerCommand</text>
</a>
</g>
<!-- \\Symfony\\Bundle\\FrameworkBundle\\Command\\ContainerAwareCommand -->
<g id="node56" class="node"><title>\\Symfony\\Bundle\\FrameworkBundle\\Command\\ContainerAwareCommand</title>
<ellipse fill="none" stroke="black" cx="371" cy="-2064" rx="370.024" ry="18.3848"/>
<text text-anchor="middle" x="371" y="-2060.4" font-family="Times Roman,serif" font-size="14.00" fill="gray">\Symfony\Bundle\FrameworkBundle\Command\ContainerAwareCommand</text>
</g>
<!-- \\BacklinkCheckerCommand&#45;&gt;\\Symfony\\Bundle\\FrameworkBundle\\Command\\ContainerAwareCommand -->
<g id="edge23" class="edge"><title>\\BacklinkCheckerCommand&#45;&gt;\\Symfony\\Bundle\\FrameworkBundle\\Command\\ContainerAwareCommand</title>
<path fill="none" stroke="black" d="M848.37,-2064C820.56,-2064 787.465,-2064 751.858,-2064"/>
<polygon fill="none" stroke="black" points="751.751,-2060.5 741.751,-2064 751.751,-2067.5 751.751,-2060.5"/>
</g>
</g>
</svg>
